# xmcd CD database file
#
# Track frame offsets:
#	150
#	14484
#	31749
#	45309
#	60407
#	75536
#	91237
#	103526
#	118536
#	135114
#	155023
#
# Disc length: 2271 seconds
#
# Revision: 0
# Processed by: cddbd v1.4PL0 Copyright (c) Steve Scherf et al.
# Submitted via: CDex 1.40Release
#
DISCID=7308dd0b
DTITLE=Pete Benz - Hold Your Horses
DYEAR=2001
DGENRE=Country
TTITLE0=Too Bad I Haven't Met You Yet
TTITLE1=I'm No Match For That Flame
TTITLE2=You're Right, I Left
TTITLE3=Good Luck
TTITLE4=Usually
TTITLE5=Hold Your Horses
TTITLE6=I Made A Deal With Her Memory
TTITLE7=The One She Is To Me
TTITLE8=Back and Forth to Fort Worth
TTITLE9=Hang On Cowboy
TTITLE10=Suprise
EXTD=YEAR: 2001 ID3G: 2
EXTT0=
EXTT1=
EXTT2=
EXTT3=
EXTT4=
EXTT5=
EXTT6=
EXTT7=
EXTT8=
EXTT9=
EXTT10=
PLAYORDER=
